<svg width="375" height="60" viewBox="0 0 375 60" fill="none" xmlns="http://www.w3.org/2000/svg">
<rect x="315" width="60" height="60" rx="16" fill="#C4C4C4"/>
<rect x="60" width="60" height="60" rx="16" fill="white"/>
<path d="M100.55 32.9625C100.374 32.854 100.231 32.7006 100.134 32.5183C100.038 32.336 99.9913 32.1312 100 31.925V27.8625C100.008 25.824 99.4205 23.8276 98.3104 22.1179C97.2002 20.4083 95.6153 19.0597 93.75 18.2375C93.6136 17.3524 93.1649 16.5453 92.4851 15.9622C91.8053 15.3792 90.9393 15.0587 90.0437 15.0587C89.1482 15.0587 88.2821 15.3792 87.6024 15.9622C86.9226 16.5453 86.4739 17.3524 86.3375 18.2375C85.1223 18.7215 84.0139 19.4392 83.075 20.35C82.106 21.2722 81.3339 22.3813 80.8054 23.6101C80.2769 24.839 80.0029 26.1623 80 27.5V31.925C80.0086 32.1312 79.9623 32.336 79.8656 32.5183C79.769 32.7006 79.6255 32.854 79.45 32.9625C78.7567 33.3289 78.1957 33.9034 77.8459 34.6052C77.4961 35.307 77.3751 36.1009 77.5 36.875C77.674 37.7714 78.16 38.5771 78.8717 39.1491C79.5834 39.7212 80.4747 40.0227 81.3875 40H85C85 41.3261 85.5268 42.5979 86.4644 43.5355C87.4021 44.4732 88.6739 45 90 45C91.3261 45 92.5978 44.4732 93.5355 43.5355C94.4732 42.5979 95 41.3261 95 40H98.6125C99.5253 40.0227 100.417 39.7212 101.128 39.1491C101.84 38.5771 102.326 37.7714 102.5 36.875C102.625 36.1009 102.504 35.307 102.154 34.6052C101.804 33.9034 101.243 33.3289 100.55 32.9625V32.9625ZM90 42.5C89.3369 42.5 88.7011 42.2366 88.2322 41.7678C87.7634 41.2989 87.5 40.663 87.5 40H92.5C92.5 40.663 92.2366 41.2989 91.7677 41.7678C91.2989 42.2366 90.663 42.5 90 42.5V42.5ZM98.6125 37.5H81.3875C81.0735 37.5155 80.7637 37.4219 80.5109 37.2351C80.258 37.0482 80.0775 36.7797 80 36.475C79.9526 36.2151 79.9888 35.9469 80.1033 35.7089C80.2178 35.4708 80.4048 35.2752 80.6375 35.15C81.208 34.8281 81.6817 34.3591 82.0092 33.7919C82.3368 33.2247 82.5063 32.58 82.5 31.925V27.5C82.499 26.4954 82.6999 25.5009 83.0907 24.5754C83.4815 23.6499 84.0543 22.8124 84.775 22.1125C85.3669 21.5333 86.0567 21.0636 86.8125 20.725C87.8067 20.2459 88.8964 19.998 90 20H90.2375C91.2592 20.0356 92.2612 20.2914 93.175 20.75C94.4819 21.4211 95.5776 22.4408 96.3409 23.6961C97.1043 24.9514 97.5054 26.3934 97.5 27.8625V31.925C97.4924 32.5788 97.66 33.2226 97.9853 33.7897C98.3107 34.3568 98.7818 34.8265 99.35 35.15C99.5826 35.2726 99.7706 35.4654 99.8873 35.7011C100.004 35.9367 100.043 36.2032 100 36.4625C99.9249 36.7695 99.7455 37.0409 99.4924 37.2302C99.2392 37.4195 98.9282 37.5148 98.6125 37.5V37.5Z" fill="#2E2E2E"/>
<circle cx="106" cy="14" r="4" fill="#F8B602"/>
<rect width="60" height="60" rx="16" fill="white"/>
<circle cx="46" cy="14" r="4" fill="#F8B602"/>
<path d="M42.5 26.6667H41.6666V22.5C41.6666 21.837 41.4032 21.2011 40.9344 20.7322C40.4656 20.2634 39.8297 20 39.1666 20H19.1666C18.5036 20 17.8677 20.2634 17.3989 20.7322C16.93 21.2011 16.6666 21.837 16.6666 22.5V35.8333C16.6666 36.4964 16.93 37.1323 17.3989 37.6011C17.8677 38.0699 18.5036 38.3333 19.1666 38.3333H20V39.8333C20.0006 40.0802 20.0743 40.3213 20.2117 40.5264C20.349 40.7315 20.544 40.8914 20.772 40.986C21 41.0806 21.2509 41.1057 21.4931 41.058C21.7353 41.0104 21.9581 40.8922 22.1333 40.7183L24.5116 38.3333H26.6666V39.1667C26.6666 39.8297 26.93 40.4656 27.3989 40.9344C27.8677 41.4033 28.5036 41.6667 29.1666 41.6667H37.155L39.5333 44.045C39.7078 44.2193 39.93 44.3381 40.1718 44.3864C40.4137 44.4347 40.6645 44.4103 40.8925 44.3164C41.1206 44.2225 41.3158 44.0633 41.4535 43.8587C41.5913 43.6541 41.6654 43.4133 41.6666 43.1667V41.6667H42.5C43.163 41.6667 43.7989 41.4033 44.2677 40.9344C44.7366 40.4656 45 39.8297 45 39.1667V29.1667C45 28.5036 44.7366 27.8677 44.2677 27.3989C43.7989 26.9301 43.163 26.6667 42.5 26.6667ZM40 35.8333C40 36.0543 39.9122 36.2663 39.7559 36.4226C39.5996 36.5789 39.3876 36.6667 39.1666 36.6667H24.1666C24.0571 36.6665 23.9486 36.6879 23.8474 36.7296C23.7462 36.7714 23.6542 36.8327 23.5766 36.91L21.6666 38.8217V37.5C21.6666 37.279 21.5788 37.067 21.4225 36.9107C21.2663 36.7545 21.0543 36.6667 20.8333 36.6667H19.1666C18.9456 36.6667 18.7337 36.5789 18.5774 36.4226C18.4211 36.2663 18.3333 36.0543 18.3333 35.8333V22.5C18.3333 22.279 18.4211 22.067 18.5774 21.9107C18.7337 21.7545 18.9456 21.6667 19.1666 21.6667H39.1666C39.3876 21.6667 39.5996 21.7545 39.7559 21.9107C39.9122 22.067 40 22.279 40 22.5V35.8333Z" fill="#2E2E2E"/>
<path d="M28.3333 24.1667C28.1123 24.1667 27.9004 24.2545 27.7441 24.4107C27.5878 24.567 27.5 24.779 27.5 25V26.6667C27.4964 26.954 27.4175 27.2354 27.2713 27.4828C27.1251 27.7301 26.9166 27.9349 26.6667 28.0767V25C26.6667 24.779 26.5789 24.567 26.4226 24.4107C26.2663 24.2545 26.0543 24.1667 25.8333 24.1667C25.6123 24.1667 25.4004 24.2545 25.2441 24.4107C25.0878 24.567 25 24.779 25 25V28.0767C24.75 27.9349 24.5416 27.7301 24.3954 27.4828C24.2492 27.2354 24.1703 26.954 24.1667 26.6667V25C24.1667 24.779 24.0789 24.567 23.9226 24.4107C23.7663 24.2545 23.5543 24.1667 23.3333 24.1667C23.1123 24.1667 22.9004 24.2545 22.7441 24.4107C22.5878 24.567 22.5 24.779 22.5 25V26.6667C22.5028 27.4035 22.7496 28.1187 23.2019 28.7004C23.6542 29.282 24.2865 29.6975 25 29.8817V33.3333C25 33.5544 25.0878 33.7663 25.2441 33.9226C25.4004 34.0789 25.6123 34.1667 25.8333 34.1667C26.0543 34.1667 26.2663 34.0789 26.4226 33.9226C26.5789 33.7663 26.6667 33.5544 26.6667 33.3333V29.8817C27.3801 29.6975 28.0124 29.282 28.4648 28.7004C28.9171 28.1187 29.1639 27.4035 29.1667 26.6667V25C29.1667 24.779 29.0789 24.567 28.9226 24.4107C28.7663 24.2545 28.5543 24.1667 28.3333 24.1667ZM32.04 24.255C31.913 24.1913 31.7717 24.1612 31.6298 24.1675C31.4878 24.1738 31.3498 24.2163 31.2289 24.291C31.108 24.3656 31.0081 24.4699 30.9389 24.5941C30.8697 24.7182 30.8333 24.8579 30.8333 25V33.3333C30.8333 33.5544 30.9211 33.7663 31.0774 33.9226C31.2337 34.0789 31.4457 34.1667 31.6667 34.1667C31.8877 34.1667 32.0996 34.0789 32.2559 33.9226C32.4122 33.7663 32.5 33.5544 32.5 33.3333V32.3183L34.8867 31.72C35.1746 31.6419 35.4264 31.4663 35.5991 31.2231C35.7717 30.9799 35.8545 30.6842 35.8333 30.3867C35.8355 29.1126 35.4815 27.8633 34.8112 26.7798C34.1409 25.6963 33.181 24.8218 32.04 24.255V24.255Z" fill="#2E2E2E"/>
<rect x="120" width="60" height="60" rx="16" fill="white"/>
<path d="M154.644 36.3562L154.569 33.7C155.131 33.5937 155.919 32.6437 156.238 32.1375L155.163 29.725C154.569 29.6313 153.338 29.575 152.881 29.925L150.956 28.0938C151.275 27.625 151.163 26.4 151.025 25.8188L148.556 24.875C148.075 25.2187 147.169 26.0563 147.094 26.625L144.438 26.6937C144.331 26.1312 143.375 25.3562 142.875 25.0312L140.463 26.1062C140.369 26.7 140.313 27.9313 140.663 28.3875L138.838 30.3125C138.363 29.9937 137.138 30.1125 136.556 30.2437L135.613 32.7063C135.956 33.2 136.794 34.0937 137.356 34.175L137.431 36.8312C136.875 36.9437 136.094 37.8875 135.769 38.3937L136.85 40.8063C137.438 40.9 138.669 40.95 139.125 40.6125L141.05 42.4312C140.731 42.9 140.85 44.1313 140.981 44.7125L143.444 45.6562C143.931 45.3062 144.838 44.4687 144.913 43.9062L147.569 43.8313C147.681 44.4 148.625 45.175 149.138 45.4938L151.544 44.425C151.644 43.825 151.688 42.6 151.35 42.1437L153.169 40.2125C153.644 40.5375 154.869 40.4187 155.456 40.2875L156.394 37.8187C156.044 37.3375 155.213 36.4375 154.644 36.3562ZM148.819 36.3375C148.606 36.895 148.233 37.3769 147.747 37.7224C147.26 38.0678 146.682 38.2612 146.086 38.2781C145.489 38.295 144.901 38.1347 144.396 37.8174C143.89 37.5001 143.491 37.0401 143.247 36.4955C143.003 35.951 142.926 35.3463 143.026 34.7581C143.125 34.1698 143.397 33.6243 143.807 33.1906C144.217 32.7569 144.746 32.4545 145.328 32.3215C145.91 32.1886 146.518 32.2311 147.075 32.4437C147.446 32.5845 147.785 32.7969 148.073 33.0689C148.361 33.3408 148.593 33.667 148.755 34.0288C148.917 34.3905 149.006 34.7806 149.017 35.1768C149.028 35.5729 148.961 35.9674 148.819 36.3375V36.3375ZM164.375 19.1625C164.081 18.9188 163.388 18.4875 163.044 18.6L161.988 16.8C162.25 16.5563 162.213 15.7375 162.144 15.3688L160.338 14.3438C159.981 14.475 159.263 14.8625 159.188 15.2125L157.1 15.2313C157.019 14.8813 156.294 14.5063 155.938 14.375L154.15 15.4312C154.088 15.8 154.063 16.6187 154.325 16.8625L153.3 18.675C152.95 18.5688 152.263 19.0125 151.975 19.2563L151.994 21.3312C152.288 21.575 152.981 22 153.325 21.8938L154.381 23.6938C154.119 23.9375 154.156 24.7563 154.225 25.125L156.031 26.15C156.381 26.0187 157.1 25.6313 157.181 25.2812L159.263 25.2625C159.35 25.6125 160.075 25.9875 160.431 26.1188L162.219 25.0625C162.281 24.6875 162.306 23.875 162.038 23.6312L163.069 21.8188C163.413 21.9188 164.1 21.4812 164.388 21.2375L164.375 19.1625ZM158.181 21.8813C157.858 21.8806 157.543 21.7843 157.274 21.6045C157.006 21.4247 156.797 21.1694 156.674 20.8709C156.551 20.5724 156.518 20.244 156.582 19.9273C156.645 19.6105 156.8 19.3196 157.029 19.0912C157.257 18.8628 157.548 18.7072 157.865 18.6441C158.182 18.5809 158.51 18.613 158.808 18.7363C159.107 18.8596 159.362 19.0686 159.542 19.3369C159.722 19.6052 159.818 19.9208 159.819 20.2437C159.819 20.4589 159.777 20.6721 159.695 20.871C159.613 21.0699 159.492 21.2506 159.34 21.4027C159.188 21.5549 159.007 21.6755 158.809 21.7576C158.61 21.8397 158.396 21.8817 158.181 21.8813V21.8813Z" fill="#2E2E2E"/>
</svg>
