<svg width="24" height="24" viewBox="0 0 24 24" fill="none" xmlns="http://www.w3.org/2000/svg">
<path d="M23.4565 7.66889C23.1565 6.26264 22.669 5.10014 21.8065 4.18139C20.5878 2.83139 18.994 2.17514 17.1003 2.17514H16.8565C14.8503 2.23139 13.2003 3.03764 12.0378 4.50014C11.6065 4.01264 11.0628 3.52514 10.444 3.15014C9.22527 2.41889 7.81902 2.11889 6.22527 2.23139C4.46277 2.41889 3.05652 3.20639 2.00652 4.50014C0.900272 5.96264 0.356522 7.61264 0.412772 9.31889C0.469022 10.9126 0.956522 12.3751 1.87527 13.7814C2.90652 15.3751 4.20027 16.5939 5.36277 17.5689C7.01277 19.0314 8.90652 20.3251 11.2878 21.6564C11.5315 21.7876 11.719 21.8439 11.9628 21.8439C12.2065 21.8439 12.394 21.7876 12.6378 21.6564C14.719 20.4939 16.5378 19.2751 18.1878 17.8689C19.894 16.4626 21.1128 15.1126 22.0878 13.6501C23.4003 11.7564 23.8128 9.80639 23.4565 7.66889Z" fill="#DBDBDB"/>
</svg>
