<svg width="40" height="40" viewBox="0 0 40 40" fill="none" xmlns="http://www.w3.org/2000/svg">
<path d="M30.8334 10H10.8334C9.72828 10 8.66848 10.439 7.88708 11.2204C7.10567 12.0018 6.66669 13.0616 6.66669 14.1667V27.5C6.66669 28.6051 7.10567 29.6649 7.88708 30.4463C8.66848 31.2277 9.72828 31.6667 10.8334 31.6667H13.3334V33.3883C13.3334 33.6146 13.3948 33.8366 13.5111 34.0306C13.6273 34.2247 13.7941 34.3836 13.9935 34.4903C14.193 34.5971 14.4177 34.6477 14.6437 34.6368C14.8697 34.6259 15.0884 34.5538 15.2767 34.4283L19.4184 31.6667H30.8334C31.9384 31.6667 32.9982 31.2277 33.7796 30.4463C34.561 29.6649 35 28.6051 35 27.5V14.1667C35 13.0616 34.561 12.0018 33.7796 11.2204C32.9982 10.439 31.9384 10 30.8334 10ZM21.8334 20.5467L20.3117 22.2717L20.5267 24.565C20.5468 24.7804 20.5107 24.9972 20.422 25.1945C20.3334 25.3918 20.1951 25.5627 20.0207 25.6906C19.8463 25.8185 19.6417 25.8991 19.4269 25.9244C19.2121 25.9497 18.9944 25.9189 18.795 25.835L16.6667 24.915L14.5534 25.8333C14.3544 25.919 14.1365 25.9515 13.9212 25.9278C13.7058 25.904 13.5004 25.8247 13.3248 25.6978C13.1493 25.5708 13.0097 25.4004 12.9198 25.2033C12.8298 25.0062 12.7926 24.7891 12.8117 24.5733L13.0284 22.275L11.5 20.5467C11.3568 20.3834 11.2586 20.1858 11.2149 19.9731C11.1712 19.7604 11.1836 19.54 11.2508 19.3336C11.3181 19.1271 11.4379 18.9417 11.5984 18.7956C11.759 18.6494 11.9548 18.5476 12.1667 18.5L14.415 18L15.5817 16.0167C15.7019 15.8427 15.8625 15.7005 16.0497 15.6023C16.237 15.5041 16.4453 15.4528 16.6567 15.4528C16.8681 15.4528 17.0764 15.5041 17.2636 15.6023C17.4509 15.7005 17.6115 15.8427 17.7317 16.0167L18.8984 18.0033L21.145 18.5033C21.3578 18.5487 21.555 18.6487 21.7174 18.7935C21.8798 18.9383 22.0017 19.1228 22.0712 19.3289C22.1406 19.5351 22.1552 19.7558 22.1135 19.9693C22.0718 20.1828 21.9753 20.3818 21.8334 20.5467ZM27.5 25H24.1667C23.9457 25 23.7337 24.9122 23.5774 24.7559C23.4211 24.5996 23.3334 24.3877 23.3334 24.1667C23.3334 23.9457 23.4211 23.7337 23.5774 23.5774C23.7337 23.4211 23.9457 23.3333 24.1667 23.3333H27.5C27.721 23.3333 27.933 23.4211 28.0893 23.5774C28.2456 23.7337 28.3334 23.9457 28.3334 24.1667C28.3334 24.3877 28.2456 24.5996 28.0893 24.7559C27.933 24.9122 27.721 25 27.5 25ZM30 21.6667H24.1667C23.9457 21.6667 23.7337 21.5789 23.5774 21.4226C23.4211 21.2663 23.3334 21.0543 23.3334 20.8333C23.3334 20.6123 23.4211 20.4004 23.5774 20.2441C23.7337 20.0878 23.9457 20 24.1667 20H30C30.221 20 30.433 20.0878 30.5893 20.2441C30.7456 20.4004 30.8334 20.6123 30.8334 20.8333C30.8334 21.0543 30.7456 21.2663 30.5893 21.4226C30.433 21.5789 30.221 21.6667 30 21.6667ZM30 18.3333H24.1667C23.9457 18.3333 23.7337 18.2455 23.5774 18.0893C23.4211 17.933 23.3334 17.721 23.3334 17.5C23.3334 17.279 23.4211 17.067 23.5774 16.9107C23.7337 16.7545 23.9457 16.6667 24.1667 16.6667H30C30.221 16.6667 30.433 16.7545 30.5893 16.9107C30.7456 17.067 30.8334 17.279 30.8334 17.5C30.8334 17.721 30.7456 17.933 30.5893 18.0893C30.433 18.2455 30.221 18.3333 30 18.3333Z" fill="#A098AE"/>
</svg>
