<svg width="56" height="56" viewBox="0 0 56 56" fill="none" xmlns="http://www.w3.org/2000/svg">
<rect width="56" height="56" rx="16" fill="white"/>
<path d="M16 31V37C16 38.3261 16.5268 39.5979 17.4645 40.5355C18.4021 41.4732 19.6739 42 21 42H35C36.3261 42 37.5979 41.4732 38.5355 40.5355C39.4732 39.5979 40 38.3261 40 37V31C40 29.6739 39.4732 28.4021 38.5355 27.4645C37.5979 26.5268 36.3261 26 35 26H21C19.6739 26 18.4021 26.5268 17.4645 27.4645C16.5268 28.4021 16 29.6739 16 31V31ZM38 31V37C38 37.7956 37.6839 38.5587 37.1213 39.1213C36.5587 39.6839 35.7956 40 35 40H21C20.2044 40 19.4413 39.6839 18.8787 39.1213C18.3161 38.5587 18 37.7956 18 37V31C18 30.2044 18.3161 29.4413 18.8787 28.8787C19.4413 28.3161 20.2044 28 21 28H35C35.7956 28 36.5587 28.3161 37.1213 28.8787C37.6839 29.4413 38 30.2044 38 31Z" fill="#2E2E2E"/>
<path d="M28.0001 38C28.7912 38 29.5646 37.7654 30.2224 37.3259C30.8802 36.8864 31.3929 36.2616 31.6956 35.5307C31.9984 34.7998 32.0776 33.9956 31.9232 33.2196C31.7689 32.4437 31.3879 31.731 30.8285 31.1716C30.2691 30.6122 29.5564 30.2312 28.7804 30.0769C28.0045 29.9225 27.2003 30.0017 26.4694 30.3045C25.7384 30.6072 25.1137 31.1199 24.6742 31.7777C24.2347 32.4355 24.0001 33.2089 24.0001 34C24.0001 35.0609 24.4215 36.0783 25.1717 36.8284C25.9218 37.5786 26.9392 38 28.0001 38ZM28.0001 32C28.3956 32 28.7823 32.1173 29.1112 32.3371C29.4401 32.5568 29.6965 32.8692 29.8478 33.2346C29.9992 33.6001 30.0388 34.0022 29.9617 34.3902C29.8845 34.7781 29.694 35.1345 29.4143 35.4142C29.1346 35.6939 28.7782 35.8844 28.3903 35.9616C28.0023 36.0387 27.6002 35.9991 27.2347 35.8478C26.8693 35.6964 26.5569 35.44 26.3371 35.1111C26.1174 34.7822 26.0001 34.3956 26.0001 34C26.0001 33.4696 26.2108 32.9609 26.5859 32.5858C26.9609 32.2107 27.4697 32 28.0001 32ZM28.7101 14.29C28.6171 14.1963 28.5065 14.1219 28.3847 14.0711C28.2628 14.0203 28.1321 13.9942 28.0001 13.9942C27.8681 13.9942 27.7374 14.0203 27.6155 14.0711C27.4937 14.1219 27.383 14.1963 27.2901 14.29L23.0501 18.54C22.8565 18.727 22.7451 18.9832 22.7404 19.2523C22.7357 19.5214 22.8381 19.7814 23.0251 19.975C23.2121 20.1686 23.4683 20.28 23.7374 20.2847C24.0065 20.2894 24.2665 20.187 24.4601 20L27.0001 17.41V23C27.0001 23.2652 27.1054 23.5196 27.293 23.7071C27.4805 23.8946 27.7349 24 28.0001 24C28.2653 24 28.5197 23.8946 28.7072 23.7071C28.8947 23.5196 29.0001 23.2652 29.0001 23V17.41L31.5401 20C31.7263 20.1847 31.9777 20.2889 32.2401 20.29C32.38 20.2976 32.52 20.2757 32.6509 20.2258C32.7818 20.1758 32.9008 20.0989 33.0001 20C33.1863 19.8126 33.2909 19.5592 33.2909 19.295C33.2909 19.0308 33.1863 18.7774 33.0001 18.59L28.7101 14.29Z" fill="#2E2E2E"/>
</svg>
