<svg width="40" height="40" viewBox="0 0 40 40" fill="none" xmlns="http://www.w3.org/2000/svg">
<rect width="40" height="40" rx="12" fill="#F8B602"/>
<path d="M30.9334 14.6267C30.549 14.5483 30.1962 14.3586 29.9188 14.0812C29.6414 13.8038 29.4518 13.451 29.3734 13.0667C29.3119 12.7655 29.1483 12.4948 28.9101 12.3005C28.672 12.1061 28.3741 11.9999 28.0667 12H16V13.3333C16 13.5101 15.9298 13.6797 15.8048 13.8047C15.6798 13.9298 15.5102 14 15.3334 14C15.1566 14 14.987 13.9298 14.862 13.8047C14.7369 13.6797 14.6667 13.5101 14.6667 13.3333V12H13.2667C12.9593 11.9999 12.6614 12.1061 12.4233 12.3005C12.1852 12.4948 12.0215 12.7655 11.96 13.0667C11.8817 13.451 11.692 13.8038 11.4146 14.0812C11.1372 14.3586 10.7844 14.5483 10.4 14.6267C10.0989 14.6881 9.8282 14.8518 9.63383 15.0899C9.43945 15.328 9.33331 15.626 9.33337 15.9333V25.4C9.33331 25.7074 9.43945 26.0053 9.63383 26.2434C9.8282 26.4816 10.0989 26.6452 10.4 26.7067C10.7844 26.7851 11.1372 26.9747 11.4146 27.2521C11.692 27.5295 11.8817 27.8823 11.96 28.2667C12.0215 28.5678 12.1852 28.8385 12.4233 29.0329C12.6614 29.2273 12.9593 29.3334 13.2667 29.3333H14.6667V28C14.6667 27.8232 14.7369 27.6536 14.862 27.5286C14.987 27.4036 15.1566 27.3333 15.3334 27.3333C15.5102 27.3333 15.6798 27.4036 15.8048 27.5286C15.9298 27.6536 16 27.8232 16 28V29.3333H28.0667C28.3741 29.3334 28.672 29.2273 28.9101 29.0329C29.1483 28.8385 29.3119 28.5678 29.3734 28.2667C29.4518 27.8823 29.6414 27.5295 29.9188 27.2521C30.1962 26.9747 30.549 26.7851 30.9334 26.7067C31.2345 26.6452 31.5052 26.4816 31.6996 26.2434C31.894 26.0053 32.0001 25.7074 32 25.4V15.9333C32.0001 15.626 31.894 15.328 31.6996 15.0899C31.5052 14.8518 31.2345 14.6881 30.9334 14.6267ZM16 25.4333C16 25.6101 15.9298 25.7797 15.8048 25.9047C15.6798 26.0298 15.5102 26.1 15.3334 26.1C15.1566 26.1 14.987 26.0298 14.862 25.9047C14.7369 25.7797 14.6667 25.6101 14.6667 25.4333V23.9667C14.6667 23.7899 14.7369 23.6203 14.862 23.4953C14.987 23.3702 15.1566 23.3 15.3334 23.3C15.5102 23.3 15.6798 23.3702 15.8048 23.4953C15.9298 23.6203 16 23.7899 16 23.9667V25.4333ZM16 21.4C16 21.5768 15.9298 21.7464 15.8048 21.8714C15.6798 21.9964 15.5102 22.0667 15.3334 22.0667C15.1566 22.0667 14.987 21.9964 14.862 21.8714C14.7369 21.7464 14.6667 21.5768 14.6667 21.4V19.9333C14.6667 19.7565 14.7369 19.587 14.862 19.4619C14.987 19.3369 15.1566 19.2667 15.3334 19.2667C15.5102 19.2667 15.6798 19.3369 15.8048 19.4619C15.9298 19.587 16 19.7565 16 19.9333V21.4ZM16 17.3653C16 17.5421 15.9298 17.7117 15.8048 17.8367C15.6798 17.9618 15.5102 18.032 15.3334 18.032C15.1566 18.032 14.987 17.9618 14.862 17.8367C14.7369 17.7117 14.6667 17.5421 14.6667 17.3653V15.8987C14.6667 15.7219 14.7369 15.5523 14.862 15.4273C14.987 15.3022 15.1566 15.232 15.3334 15.232C15.5102 15.232 15.6798 15.3022 15.8048 15.4273C15.9298 15.5523 16 15.7219 16 15.8987V17.3653ZM23.3334 18C23.3312 18.5895 23.1337 19.1616 22.7718 19.627C22.41 20.0923 21.9041 20.4246 21.3334 20.572V25.3333C21.3334 25.5101 21.2631 25.6797 21.1381 25.8047C21.0131 25.9298 20.8435 26 20.6667 26C20.4899 26 20.3203 25.9298 20.1953 25.8047C20.0703 25.6797 20 25.5101 20 25.3333V20.572C19.4293 20.4246 18.9234 20.0923 18.5616 19.627C18.1997 19.1616 18.0022 18.5895 18 18V16C18 15.8232 18.0703 15.6536 18.1953 15.5286C18.3203 15.4036 18.4899 15.3333 18.6667 15.3333C18.8435 15.3333 19.0131 15.4036 19.1381 15.5286C19.2631 15.6536 19.3334 15.8232 19.3334 16V18C19.336 18.2299 19.399 18.4551 19.516 18.6531C19.633 18.851 19.7999 19.0148 20 19.128V16C20 15.8232 20.0703 15.6536 20.1953 15.5286C20.3203 15.4036 20.4899 15.3333 20.6667 15.3333C20.8435 15.3333 21.0131 15.4036 21.1381 15.5286C21.2631 15.6536 21.3334 15.8232 21.3334 16V19.128C21.5335 19.0148 21.7004 18.851 21.8174 18.6531C21.9344 18.4551 21.9974 18.2299 22 18V16C22 15.8232 22.0703 15.6536 22.1953 15.5286C22.3203 15.4036 22.4899 15.3333 22.6667 15.3333C22.8435 15.3333 23.0131 15.4036 23.1381 15.5286C23.2631 15.6536 23.3334 15.8232 23.3334 16V18ZM27.916 22.7867L26 23.7453V25.3333C26 25.5101 25.9298 25.6797 25.8048 25.8047C25.6798 25.9298 25.5102 26 25.3334 26C25.1566 26 24.987 25.9298 24.862 25.8047C24.7369 25.6797 24.6667 25.5101 24.6667 25.3333V16C24.6665 15.868 24.7054 15.7388 24.7787 15.629C24.8519 15.5191 24.9561 15.4335 25.0781 15.383C25.2001 15.3324 25.3343 15.3192 25.4638 15.345C25.5932 15.3708 25.7121 15.4345 25.8054 15.528C27.4809 17.0914 28.4991 19.2336 28.6534 21.52C28.6676 21.7801 28.6054 22.0386 28.4744 22.2637C28.3433 22.4888 28.1492 22.6706 27.916 22.7867Z" fill="white"/>
</svg>
