<svg width="56" height="56" viewBox="0 0 56 56" fill="none" xmlns="http://www.w3.org/2000/svg">
<path d="M14.4084 55.125C9.97503 55.125 5.5417 53.55 2.80003 49.9917C0.408363 46.9 -0.291637 42.7583 0.700029 38.2667C1.63336 34.1833 3.9667 30.3333 7.00003 28.0583C11.9584 24.2667 35.0584 12.7167 41.1834 20.7083C43.8084 24.2083 42.525 30.1 37.45 37.7417C33.4834 43.6917 28.1167 49.4083 25.0834 51.6833C22.225 53.9 18.3167 55.125 14.4084 55.125ZM34.0084 20.1833C26.075 20.1833 12.8917 26.4833 8.40003 29.8667C5.83336 31.85 3.7917 35.175 2.97503 38.7333C2.10003 42.525 2.7417 46.025 4.6667 48.5917C8.92503 54.1333 18.4917 53.8417 23.6834 49.9333C26.6 47.7167 31.85 42.0583 35.525 36.5167C39.9584 29.8083 41.3 24.7333 39.3167 22.1083C38.2667 20.7667 36.3417 20.1833 34.0084 20.1833Z" fill="#2E2E2E"/>
<path d="M14.4667 49.35C11.375 49.35 8.80837 48.3 7.40837 46.4917C6.12504 44.8 5.71671 42.2333 6.35837 39.55C6.94171 36.75 8.51671 34.125 10.5 32.6667C14.6417 29.5167 27.0667 23.6833 34.0084 23.6833C35.8167 23.6833 36.5167 24.0917 36.6334 24.2083C36.9834 24.6167 37.275 27.65 32.6667 34.5917C28.8167 40.3083 23.7417 45.5 21.525 47.1917C19.775 48.5333 17.0917 49.35 14.4667 49.35Z" fill="#F8B602"/>
<path d="M53.7249 16.3333C53.2583 15.6917 52.6749 15.225 52.0333 14.875C50.8083 14.2333 49.8749 13.0667 49.6416 11.725C49.4666 11.025 49.1749 10.325 48.7083 9.74167C47.2499 7.93333 44.2749 7.525 42.3499 8.86667C40.1916 10.3833 39.7249 13.4167 41.2999 15.5167C41.7083 16.0417 41.6499 16.8 41.1249 17.15L37.8583 19.6583C38.7916 20.0667 39.6083 20.5917 40.1916 21.4083C40.7749 22.1667 41.1249 23.1 41.2416 24.0917L44.5083 21.5833C45.0333 21.175 45.7333 21.2917 46.1416 21.8167C47.7749 23.9167 50.8083 24.2667 52.8499 22.575C54.7166 21.175 55.0666 18.2 53.7249 16.3333Z" fill="#A6C44A"/>
<path d="M40.3667 26.25L40.1334 24.2667C40.0167 23.3917 39.7834 22.6917 39.3167 22.1083C38.85 21.525 38.2667 21.0583 37.45 20.7667L35.5834 20.0083L40.4834 16.275L40.425 16.2167C39.4334 14.9333 39.025 13.3583 39.3167 11.7833C39.55 10.2083 40.425 8.80834 41.7084 7.87501C44.1 6.18334 47.7167 6.65001 49.5834 8.98334C50.1667 9.74167 50.575 10.5583 50.75 11.4333C50.9834 12.4833 51.625 13.3583 52.5584 13.825C53.375 14.2333 54.075 14.875 54.6584 15.6333C56.4084 18.025 55.8834 21.6417 53.6084 23.5083C52.3834 24.5583 50.8084 24.9667 49.2334 24.7917C47.6584 24.6167 46.2584 23.8 45.2667 22.5167L45.2084 22.4583L40.3667 26.25ZM45.2084 20.2417C45.325 20.2417 45.4417 20.2417 45.5 20.2417C46.1417 20.3 46.6667 20.65 47.075 21.175C47.6584 21.9333 48.5334 22.4583 49.4667 22.575C50.4584 22.6917 51.3917 22.4 52.15 21.7583C53.4917 20.65 53.7834 18.375 52.7917 16.975C52.4417 16.5083 52.0334 16.1583 51.5667 15.8667C49.9917 15.05 48.8834 13.65 48.5334 11.9C48.4167 11.375 48.1834 10.85 47.8334 10.3833C46.725 9.04167 44.45 8.75001 43.05 9.74167C42.2334 10.325 41.7084 11.1417 41.5917 12.075C41.4167 13.0083 41.7084 14 42.2917 14.7583C42.7 15.2833 42.875 15.8667 42.7584 16.5083C42.7 17.0917 42.35 17.675 41.8834 18.025L40.0167 19.4833C40.4834 19.8333 40.8334 20.1833 41.1834 20.65C41.5334 21.1167 41.7667 21.5833 42 22.1083L43.8667 20.65C44.275 20.4167 44.7417 20.2417 45.2084 20.2417Z" fill="#2E2E2E"/>
<path d="M7.90403 36.6416L6.22742 36.4164L5.9168 38.729L7.59341 38.9542L7.90403 36.6416Z" fill="#2E2E2E"/>
<path d="M20.385 36.9901L18.7084 36.7649L18.3978 39.0775L20.0744 39.3027L20.385 36.9901Z" fill="#2E2E2E"/>
<path d="M31.7651 34.3619L30.0885 34.1367L29.7779 36.4493L31.4545 36.6745L31.7651 34.3619Z" fill="#2E2E2E"/>
<path d="M14.9021 47.5451L13.2255 47.3199L12.9148 49.6325L14.5915 49.8577L14.9021 47.5451Z" fill="#2E2E2E"/>
<path d="M18.9258 30.3381L17.2491 30.1129L16.9385 32.4254L18.6151 32.6506L18.9258 30.3381Z" fill="#2E2E2E"/>
<path d="M30.7143 24.7949L29.0377 24.5697L28.7271 26.8823L30.4037 27.1075L30.7143 24.7949Z" fill="#2E2E2E"/>
<path d="M15.6333 0.875H13.2999V8.10833H15.6333V0.875Z" fill="#2E2E2E"/>
<path d="M8.74996 10.9667H6.41663V18.2H8.74996V10.9667Z" fill="#2E2E2E"/>
<path d="M22.575 8.69167H20.2417V15.925H22.575V8.69167Z" fill="#2E2E2E"/>
</svg>
