<svg width="56" height="56" viewBox="0 0 56 56" fill="none" xmlns="http://www.w3.org/2000/svg">
<path d="M55.7083 24.9083H0.291626V23.7417C0.291626 13.2417 12.1333 1.45833 28 1.45833C43.8666 1.45833 55.7083 13.2417 55.7083 23.7417V24.9083ZM2.68329 22.575H53.375C52.5 13.475 41.9416 3.73333 28 3.73333C14.0583 3.73333 3.49996 13.475 2.68329 22.575Z" fill="#2E2E2E"/>
<path d="M9.10004 17.9667C12.3667 12.8333 19.6 8.39999 28 8.39999C36.4 8.39999 43.575 12.8333 46.9 17.9667H9.10004ZM52.325 53.375H3.67504C2.45004 53.375 1.45837 52.3833 1.45837 51.1583V43.6917H54.5417V51.1583C54.5417 52.3833 53.55 53.375 52.325 53.375Z" fill="#A6C44A"/>
<path d="M52.325 54.5417H3.67496C1.80829 54.5417 0.291626 53.025 0.291626 51.1583V42.5833H55.7083V51.2167C55.7083 53.025 54.1916 54.5417 52.325 54.5417ZM2.62496 44.8583V51.1583C2.62496 51.7417 3.09163 52.2083 3.67496 52.2083H52.3833C52.9666 52.2083 53.4333 51.7417 53.4333 51.1583V44.8583H2.62496Z" fill="#2E2E2E"/>
<path d="M49.525 38.675H6.47504C3.67504 38.675 1.45837 36.4 1.45837 33.6583C1.45837 30.8583 3.73337 28.6417 6.47504 28.6417H49.525C52.325 28.6417 54.5417 30.9167 54.5417 33.6583C54.5417 36.4583 52.325 38.675 49.525 38.675Z" fill="#F8B602"/>
<path d="M49.525 39.8417H6.47496C3.03329 39.8417 0.291626 37.0417 0.291626 33.6583C0.291626 30.275 3.09163 27.475 6.47496 27.475H49.525C52.9666 27.475 55.7083 30.275 55.7083 33.6583C55.7083 37.0417 52.9083 39.8417 49.525 39.8417ZM6.47496 29.75C4.31663 29.75 2.56663 31.5 2.56663 33.6583C2.56663 35.8167 4.31663 37.5667 6.47496 37.5667H49.525C51.6833 37.5667 53.4333 35.8167 53.4333 33.6583C53.4333 31.5 51.6833 29.75 49.525 29.75H6.47496Z" fill="#F8B602"/>
<path d="M30.8 35.8167C29.6917 35.8167 28.7 35.4083 27.7667 35.0583C27.0084 34.7667 26.3084 34.475 25.6667 34.475C24.9084 34.4167 24.0334 34.7083 23.1584 34.9417C21.8167 35.35 20.3 35.8167 18.7834 35.2917C18.3167 35.1167 17.9084 34.8833 17.5584 34.7083C17.325 34.5917 17.0917 34.4167 16.8584 34.3583C15.75 33.8917 14.4084 34.1833 12.95 34.5333L12.5417 34.65C10.85 35 8.40002 35.35 6.65002 33.8333L8.16669 32.0833C8.92502 32.725 10.15 32.8417 12.075 32.4333L12.4834 32.3167C14.1167 31.9667 15.9834 31.5583 17.7917 32.2583C18.1417 32.4333 18.4334 32.6083 18.7834 32.725C19.075 32.9 19.3667 33.075 19.6 33.1333C20.4167 33.425 21.4084 33.1333 22.575 32.7833C23.625 32.4917 24.675 32.1417 25.9 32.2C26.95 32.2583 27.825 32.6083 28.7 32.9583C29.6334 33.3083 30.5084 33.6583 31.2667 33.5417C31.5584 33.4833 31.9084 33.3667 32.3167 33.1917C32.4917 33.1333 32.6084 33.075 32.7834 33.0167C34.5334 32.3167 36.575 32.1417 38.4417 32.55C38.7334 32.6083 39.0834 32.6667 39.375 32.7833C39.9584 32.9583 40.5417 33.075 41.0667 33.075C41.825 33.075 42.6417 32.725 43.4584 32.4333C43.8084 32.3167 44.1584 32.1417 44.5084 32.025C46.4917 31.325 48.2417 31.5 49.4084 32.4917L47.8917 34.2417C47.1334 33.6 45.7917 34.0083 45.2084 34.1833C44.9167 34.3 44.5667 34.4167 44.275 34.5333C43.2834 34.9417 42.2334 35.35 41.0084 35.35C41.0084 35.35 41.0084 35.35 40.95 35.35C40.1334 35.35 39.375 35.175 38.675 35C38.3834 34.9417 38.15 34.8833 37.8584 34.825C36.4 34.5333 34.8834 34.65 33.5417 35.175C33.425 35.2333 33.25 35.2917 33.1334 35.35C32.6667 35.525 32.2 35.7583 31.6167 35.8167C31.325 35.7583 31.0917 35.8167 30.8 35.8167Z" fill="#2E2E2E"/>
<path d="M9.11775 18.5612L7.7644 16.6605L6.0062 17.9123L7.35955 19.8131L9.11775 18.5612Z" fill="#2E2E2E"/>
<path d="M40.0946 11.3803L38.741 9.47975L36.9829 10.7318L38.3366 12.6324L40.0946 11.3803Z" fill="#2E2E2E"/>
<path d="M34.5035 9.03798L33.1501 7.13722L31.3919 8.38907L32.7453 10.2898L34.5035 9.03798Z" fill="#2E2E2E"/>
<path d="M13.4828 14.1626L11.9265 12.4241L10.8834 13.3578L12.4397 15.0964L13.4828 14.1626Z" fill="#2E2E2E"/>
<path d="M21.0214 10.4073L20.1235 8.25365L18.4544 8.94948L19.3523 11.1032L21.0214 10.4073Z" fill="#2E2E2E"/>
<path d="M15.4572 19.5792L14.4672 17.4663L13.2523 18.0355L14.2423 20.1484L15.4572 19.5792Z" fill="#2E2E2E"/>
<path d="M26.6584 9.21667L25.2 7.40834C25.9 6.825 26.775 6.41667 27.65 6.24167L28.175 8.45834C27.5917 8.63334 27.0667 8.86667 26.6584 9.21667ZM17.7917 16.0417L17.2084 13.825C17.7334 13.7083 18.2584 13.475 18.725 13.2417L19.775 15.2833C19.1334 15.575 18.4917 15.8083 17.7917 16.0417Z" fill="#2E2E2E"/>
<path d="M30.8662 19.1824L30.1246 16.9701L28.1888 17.6189L28.9304 19.8313L30.8662 19.1824Z" fill="#2E2E2E"/>
<path d="M42.6122 19.9088L41.8706 17.6964L39.9348 18.3453L40.6764 20.5577L42.6122 19.9088Z" fill="#2E2E2E"/>
<path d="M35.6416 20.3583L34.7083 18.2583C35.2916 18.025 35.8749 17.7917 36.4583 17.675L36.9249 19.95C36.4583 20.0667 35.9916 20.1833 35.6416 20.3583ZM32.6666 15.8667L31.7333 13.7667C32.3166 13.5333 32.8999 13.3583 33.4833 13.1833L33.9499 15.4583C33.4833 15.5167 33.0749 15.6917 32.6666 15.8667Z" fill="#2E2E2E"/>
<path d="M26.9311 14.3917L26.187 12.1802L24.8601 12.6267L25.6042 14.8382L26.9311 14.3917Z" fill="#2E2E2E"/>
<path d="M16.0246 11.5402L15.2795 9.32901L13.9528 9.77606L14.6979 11.9872L16.0246 11.5402Z" fill="#2E2E2E"/>
<path d="M24.0145 20.0081L23.2694 17.7969L21.9427 18.244L22.6878 20.4551L24.0145 20.0081Z" fill="#2E2E2E"/>
<path d="M48.1248 18.256L47.3807 16.0445L46.0538 16.4909L46.7979 18.7025L48.1248 18.256Z" fill="#2E2E2E"/>
<path d="M43.9295 15.7154L43.1854 13.5039L41.8585 13.9503L42.6026 16.1618L43.9295 15.7154Z" fill="#2E2E2E"/>
</svg>
