<svg width="24" height="24" viewBox="0 0 24 24" fill="none" xmlns="http://www.w3.org/2000/svg">
<path d="M15.0001 12C15.0008 12.1316 14.9756 12.2621 14.9258 12.3839C14.8761 12.5058 14.8027 12.6166 14.7101 12.71L10.7101 16.71C10.5218 16.8983 10.2664 17.0041 10.0001 17.0041C9.73376 17.0041 9.47837 16.8983 9.29006 16.71C9.10176 16.5217 8.99597 16.2663 8.99597 16C8.99597 15.7337 9.10176 15.4783 9.29006 15.29L12.5901 12L9.30006 8.71003C9.13624 8.51873 9.05063 8.27265 9.06035 8.02098C9.07007 7.7693 9.1744 7.53056 9.3525 7.35247C9.53059 7.17437 9.76933 7.07004 10.021 7.06032C10.2727 7.0506 10.5188 7.1362 10.7101 7.30003L14.7101 11.3C14.8948 11.4863 14.999 11.7377 15.0001 12Z" fill="#F8B602"/>
</svg>
